<?xml version="1.0" encoding="iso-8859-1"?>
<!-- Uploaded to: SVG Repo, www.svgrepo.com, Generator: SVG Repo Mixer Tools -->
<svg fill="#000000" height="800px" width="800px" version="1.1" id="Layer_1" xmlns="http://www.w3.org/2000/svg" xmlns:xlink="http://www.w3.org/1999/xlink" 
	 viewBox="0 0 504 504" xml:space="preserve">
<g>
	<g>
		<path d="M252,0C113.052,0,0,113.048,0,252s113.052,252,252,252c138.952,0,252-113.048,252-252S390.952,0,252,0z M263.812,71.804
			L346.38,44.1c28.336,12.908,53.596,31.392,74.324,54.112l-0.156,87.852l-73.26,17.74l-83.476-60.652V71.804z M157.068,44.348
			l83.12,27.504v71.3l-83.476,60.652L83.96,186.072l-0.164-82.904c0-1.528-0.46-2.944-1.22-4.152
			C103.3,76.076,128.632,57.4,157.068,44.348z M53.02,363.908c-14.788-26.188-24.576-55.544-28.004-86.804L76.712,208.6
			l72.812,17.748l31.832,97.964l-45.584,66.868L53.02,363.908z M295.864,476.24c-14.204,2.776-28.852,4.212-43.86,4.212
			c-16.62,0.004-32.82-1.888-48.436-5.28l-48.772-69.736l45.704-66.812h102.924l41.416,66.668L295.864,476.24z M363.972,391.108
			l-41.34-66.764l31.844-98l73.32-17.752l51.32,67.488c-3.264,31.016-12.772,60.184-27.224,86.256L363.972,391.108z"/>
	</g>
</g>
</svg>