<svg width="36" height="36" viewBox="0 0 36 36" fill="none" xmlns="http://www.w3.org/2000/svg">
<path d="M19 17H33V3.93333C33 3.6858 32.9017 3.4484 32.7266 3.27337C32.5516 3.09833 32.3142 3 32.0667 3H19V17Z" fill="#4CAF50"/>
<path d="M17 17V3H3.93333C3.6858 3 3.4484 3.09833 3.27337 3.27337C3.09833 3.4484 3 3.6858 3 3.93333V17H17Z" fill="#F44336"/>
<path d="M17 19H3V32.0667C3 32.3142 3.09833 32.5516 3.27337 32.7266C3.4484 32.9017 3.6858 33 3.93333 33H17V19Z" fill="#2196F3"/>
<path d="M19 19V33H32.0667C32.3142 33 32.5516 32.9017 32.7266 32.7266C32.9017 32.5516 33 32.3142 33 32.0667V19H19Z" fill="#FFC107"/>
</svg>
