<?xml version="1.0" ?><!-- Uploaded to: SVG Repo, www.svgrepo.com, Generator: SVG Repo Mixer Tools -->
<svg width="800px" height="800px" viewBox="0 0 64 64" data-name="Layer 1" id="Layer_1" xmlns="http://www.w3.org/2000/svg"><defs><style>.cls-1{fill:#231f20;}</style></defs><title/><path class="cls-1" d="M32,52.82a20.88,20.88,0,0,1-7.35-1.33,1,1,0,0,1-.65-1,1,1,0,0,1,.76-.91c12.24-3,15.16-14.39,15.85-19.13a1,1,0,0,1,1-.86A20.16,20.16,0,0,1,52.3,33.07a1,1,0,0,1,.43.91A20.73,20.73,0,0,1,32,52.82Zm-3.55-2.33a19.14,19.14,0,0,0,3.55.33A18.72,18.72,0,0,0,50.67,34.39a18.08,18.08,0,0,0-8.23-2.74C41.55,36.71,38.54,46.42,28.45,50.49Z"/><path class="cls-1" d="M25,51.55a1,1,0,0,1-.35-.06,20.76,20.76,0,0,1-9-6.59A1.05,1.05,0,0,1,15.5,44a1,1,0,0,1,.69-.65A30.11,30.11,0,0,0,23.79,40C28.2,37.34,31,34.22,31,32a1,1,0,0,1,.64-.94,26.74,26.74,0,0,1,10-1.48,1,1,0,0,1,.94,1.14c-.74,5.15-3.93,17.47-17.35,20.79Zm-6.8-6.76a18.57,18.57,0,0,0,6.86,4.71c11.12-2.91,14.41-12.77,15.37-17.94A25.92,25.92,0,0,0,33,32.73c-.56,4-5.79,7.57-8.13,9A33.44,33.44,0,0,1,18.2,44.79Z"/><path class="cls-1" d="M51.73,34.89a1,1,0,0,1-.57-.18,18.22,18.22,0,0,0-9.61-3.12,25.4,25.4,0,0,0-9.19,1.34,1,1,0,0,1-1.09-.25,15.12,15.12,0,0,1-3.63-9.2,1,1,0,0,1,.51-1A30,30,0,0,1,47.89,19a1,1,0,0,1,.62.38A20.54,20.54,0,0,1,52.82,32c0,.67,0,1.34-.09,2a1,1,0,0,1-1,.9ZM40.48,29.56l1.17,0a20.67,20.67,0,0,1,9.17,2.55V32a18.53,18.53,0,0,0-3.66-11.14A27.94,27.94,0,0,0,29.7,23.94a13.19,13.19,0,0,0,2.61,6.89A27.52,27.52,0,0,1,40.48,29.56Z"/><path class="cls-1" d="M28.64,24.38a1,1,0,0,1-.46-.11,1,1,0,0,1-.54-.8,37,37,0,0,1,1-11.36,1,1,0,0,1,.84-.77A18.9,18.9,0,0,1,32,11.18a20.63,20.63,0,0,1,16.51,8.15,1,1,0,0,1-1,1.6,27.91,27.91,0,0,0-18.41,3.32A1,1,0,0,1,28.64,24.38Zm1.8-11.13a36.56,36.56,0,0,0-.89,8.51,30,30,0,0,1,15.69-3.13A18.62,18.62,0,0,0,32,13.18C31.48,13.18,31,13.2,30.44,13.25Z"/><path class="cls-1" d="M24.31,41.84a1,1,0,0,1-.8-.4c-4.72-6.35-6-16.4-6.23-23.72a1,1,0,0,1,.31-.75A20.59,20.59,0,0,1,29.5,11.34a1,1,0,0,1,.86.32,1,1,0,0,1,.24.89,34.87,34.87,0,0,0-1,10.74v.1a13.08,13.08,0,0,0,3.09,7.93A1,1,0,0,1,33,32c0,4.31-5.7,8.22-8.18,9.71A1,1,0,0,1,24.31,41.84Zm-5-23.73c.21,5.61,1.21,15.24,5.29,21.38,3.72-2.39,6.15-5.09,6.39-7.13a15.32,15.32,0,0,1-3.34-8.88,35.4,35.4,0,0,1,.7-9.94A18.56,18.56,0,0,0,19.3,18.11Z"/><path class="cls-1" d="M16.45,45.28a1,1,0,0,1-.78-.38A20.8,20.8,0,0,1,17.59,17a1,1,0,0,1,1.07-.21,1,1,0,0,1,.62.9c.19,5.75,1.2,16.34,5.83,22.58a1,1,0,0,1,.18.79,1,1,0,0,1-.46.67,33.19,33.19,0,0,1-8.12,3.55A1.15,1.15,0,0,1,16.45,45.28Zm.94-25.16a18.83,18.83,0,0,0-.56,23,30.64,30.64,0,0,0,6-2.61C19.14,34.86,17.8,26.75,17.39,20.12Z"/></svg>