<svg width="611" height="389" viewBox="0 0 611 389" fill="none" xmlns="http://www.w3.org/2000/svg">
<g filter="url(#filter0_f_103_1413)">
<circle cx="176.62" cy="176.62" r="76.6203" fill="white" fill-opacity="0.59"/>
</g>
<g filter="url(#filter1_f_103_1413)">
<circle cx="253.62" cy="211.62" r="76.6203" fill="white" fill-opacity="0.59"/>
</g>
<g filter="url(#filter2_f_103_1413)">
<circle cx="357.62" cy="211.62" r="76.6203" fill="white" fill-opacity="0.59"/>
</g>
<g filter="url(#filter3_f_103_1413)">
<circle cx="433.62" cy="192.62" r="76.6203" fill="white" fill-opacity="0.59"/>
</g>
<g filter="url(#filter4_bd_103_1413)">
<mask id="path-5-inside-1_103_1413" fill="white">
<path fill-rule="evenodd" clip-rule="evenodd" d="M272.563 158.351C272.683 158.352 272.804 158.353 272.924 158.353C290.087 158.353 304 144.44 304 127.277C304 110.115 290.087 96.2017 272.924 96.2017C272.804 96.2017 272.683 96.2024 272.563 96.2037V96.2017H264.535C264.825 94.075 264.975 91.9037 264.975 89.6975C264.975 63.3549 243.62 42 217.277 42C190.935 42 169.58 63.3549 169.58 89.6975C169.58 92.1831 169.77 94.6243 170.136 97.0074C167.868 96.4803 165.504 96.2017 163.076 96.2017C145.913 96.2017 132 110.115 132 127.277C132 144.44 145.913 158.353 163.076 158.353C163.197 158.353 163.318 158.352 163.439 158.351L163.437 158.353H272.563V158.351Z"/>
</mask>
<path fill-rule="evenodd" clip-rule="evenodd" d="M272.563 158.351C272.683 158.352 272.804 158.353 272.924 158.353C290.087 158.353 304 144.44 304 127.277C304 110.115 290.087 96.2017 272.924 96.2017C272.804 96.2017 272.683 96.2024 272.563 96.2037V96.2017H264.535C264.825 94.075 264.975 91.9037 264.975 89.6975C264.975 63.3549 243.62 42 217.277 42C190.935 42 169.58 63.3549 169.58 89.6975C169.58 92.1831 169.77 94.6243 170.136 97.0074C167.868 96.4803 165.504 96.2017 163.076 96.2017C145.913 96.2017 132 110.115 132 127.277C132 144.44 145.913 158.353 163.076 158.353C163.197 158.353 163.318 158.352 163.439 158.351L163.437 158.353H272.563V158.351Z" fill="url(#paint0_linear_103_1413)" shape-rendering="crispEdges"/>
<path d="M272.563 158.351L272.586 156.351C272.052 156.345 271.537 156.553 271.157 156.929C270.777 157.304 270.563 157.816 270.563 158.351H272.563ZM272.563 96.2037H270.563C270.563 96.7381 270.777 97.2503 271.157 97.626C271.537 98.0017 272.051 98.2097 272.586 98.2036L272.563 96.2037ZM272.563 96.2017H274.563C274.563 95.0971 273.668 94.2017 272.563 94.2017V96.2017ZM264.535 96.2017L262.553 95.9315C262.475 96.5037 262.649 97.0818 263.028 97.5169C263.408 97.952 263.957 98.2017 264.535 98.2017V96.2017ZM170.136 97.0074L169.684 98.9555C170.33 99.1057 171.009 98.9253 171.496 98.4741C171.983 98.0228 172.214 97.3594 172.113 96.7033L170.136 97.0074ZM163.439 158.351L165.008 159.59C165.486 158.985 165.573 158.16 165.233 157.468C164.893 156.777 164.186 156.342 163.416 156.351L163.439 158.351ZM163.437 158.353L161.867 157.114C161.392 157.715 161.303 158.535 161.637 159.225C161.971 159.915 162.67 160.353 163.437 160.353V158.353ZM272.563 158.353V160.353C273.668 160.353 274.563 159.458 274.563 158.353H272.563ZM272.54 160.351C272.668 160.352 272.796 160.353 272.924 160.353V156.353C272.811 156.353 272.699 156.352 272.586 156.351L272.54 160.351ZM272.924 160.353C291.192 160.353 306 145.544 306 127.277H302C302 143.335 288.982 156.353 272.924 156.353V160.353ZM306 127.277C306 109.01 291.192 94.2017 272.924 94.2017V98.2017C288.982 98.2017 302 111.219 302 127.277H306ZM272.924 94.2017C272.796 94.2017 272.668 94.2024 272.54 94.2039L272.586 98.2036C272.699 98.2023 272.811 98.2017 272.924 98.2017V94.2017ZM270.563 96.2017V96.2037H274.563V96.2017H270.563ZM264.535 98.2017H272.563V94.2017H264.535V98.2017ZM266.517 96.4719C266.819 94.2559 266.975 91.9944 266.975 89.6975H262.975C262.975 91.8131 262.831 93.8941 262.553 95.9315L266.517 96.4719ZM266.975 89.6975C266.975 62.2503 244.724 40 217.277 40V44C242.515 44 262.975 64.4595 262.975 89.6975H266.975ZM217.277 40C189.83 40 167.58 62.2503 167.58 89.6975H171.58C171.58 64.4595 192.039 44 217.277 44V40ZM167.58 89.6975C167.58 92.2852 167.778 94.8281 168.16 97.3114L172.113 96.7033C171.762 94.4205 171.58 92.081 171.58 89.6975H167.58ZM170.589 95.0592C168.173 94.498 165.658 94.2017 163.076 94.2017V98.2017C165.351 98.2017 167.563 98.4627 169.684 98.9555L170.589 95.0592ZM163.076 94.2017C144.808 94.2017 130 109.01 130 127.277H134C134 111.219 147.018 98.2017 163.076 98.2017V94.2017ZM130 127.277C130 145.544 144.808 160.353 163.076 160.353V156.353C147.018 156.353 134 143.335 134 127.277H130ZM163.076 160.353C163.204 160.353 163.333 160.352 163.461 160.351L163.416 156.351C163.303 156.352 163.189 156.353 163.076 156.353V160.353ZM165.007 159.592L165.008 159.59L161.869 157.112L161.867 157.114L165.007 159.592ZM272.563 156.353H163.437V160.353H272.563V156.353ZM270.563 158.351V158.353H274.563V158.351H270.563Z" fill="url(#paint1_linear_103_1413)" mask="url(#path-5-inside-1_103_1413)"/>
</g>
<g filter="url(#filter5_bd_103_1413)">
<mask id="path-7-inside-2_103_1413" fill="white">
<path fill-rule="evenodd" clip-rule="evenodd" d="M366.5 237.997C366.666 237.999 366.833 238 367 238C390.748 238 410 218.748 410 195C410 171.252 390.748 152 367 152C366.833 152 366.666 152.001 366.5 152.003V152H355.391C355.793 149.057 356 146.053 356 143C356 106.549 326.451 77 290 77C253.549 77 224 106.549 224 143C224 146.439 224.263 149.817 224.77 153.115C221.631 152.386 218.361 152 215 152C191.252 152 172 171.252 172 195C172 218.748 191.252 238 215 238C215.168 238 215.335 237.999 215.502 237.997L215.5 238H366.5V237.997Z"/>
</mask>
<path fill-rule="evenodd" clip-rule="evenodd" d="M366.5 237.997C366.666 237.999 366.833 238 367 238C390.748 238 410 218.748 410 195C410 171.252 390.748 152 367 152C366.833 152 366.666 152.001 366.5 152.003V152H355.391C355.793 149.057 356 146.053 356 143C356 106.549 326.451 77 290 77C253.549 77 224 106.549 224 143C224 146.439 224.263 149.817 224.77 153.115C221.631 152.386 218.361 152 215 152C191.252 152 172 171.252 172 195C172 218.748 191.252 238 215 238C215.168 238 215.335 237.999 215.502 237.997L215.5 238H366.5V237.997Z" fill="url(#paint2_linear_103_1413)" shape-rendering="crispEdges"/>
<path d="M366.5 237.997L366.523 235.997C365.988 235.991 365.474 236.199 365.094 236.575C364.714 236.951 364.5 237.463 364.5 237.997H366.5ZM366.5 152.003H364.5C364.5 152.537 364.714 153.049 365.094 153.425C365.474 153.801 365.988 154.009 366.523 154.003L366.5 152.003ZM366.5 152H368.5C368.5 150.895 367.605 150 366.5 150V152ZM355.391 152L353.41 151.73C353.332 152.302 353.505 152.88 353.885 153.315C354.265 153.75 354.814 154 355.391 154V152ZM224.77 153.115L224.318 155.063C224.964 155.213 225.643 155.033 226.13 154.582C226.617 154.13 226.848 153.467 226.747 152.811L224.77 153.115ZM215.502 237.997L217.072 239.237C217.549 238.632 217.637 237.807 217.297 237.115C216.957 236.423 216.25 235.988 215.479 235.997L215.502 237.997ZM215.5 238L213.931 236.76C213.455 237.362 213.366 238.182 213.7 238.872C214.034 239.562 214.733 240 215.5 240V238ZM366.5 238V240C367.605 240 368.5 239.105 368.5 238H366.5ZM366.477 239.997C366.651 239.999 366.825 240 367 240V236C366.841 236 366.682 235.999 366.523 235.997L366.477 239.997ZM367 240C391.853 240 412 219.853 412 195H408C408 217.644 389.644 236 367 236V240ZM412 195C412 170.147 391.853 150 367 150V154C389.644 154 408 172.356 408 195H412ZM367 150C366.826 150 366.651 150.001 366.477 150.003L366.523 154.003C366.682 154.001 366.841 154 367 154V150ZM364.5 152V152.003H368.5V152H364.5ZM355.391 154H366.5V150H355.391V154ZM357.373 152.27C357.787 149.238 358 146.143 358 143H354C354 145.962 353.799 148.876 353.41 151.73L357.373 152.27ZM358 143C358 105.445 327.555 75 290 75V79C325.346 79 354 107.654 354 143H358ZM290 75C252.445 75 222 105.445 222 143H226C226 107.654 254.654 79 290 79V75ZM222 143C222 146.542 222.271 150.021 222.793 153.419L226.747 152.811C226.255 149.614 226 146.337 226 143H222ZM225.223 151.167C221.937 150.403 218.514 150 215 150V154C218.207 154 221.326 154.368 224.318 155.063L225.223 151.167ZM215 150C190.147 150 170 170.147 170 195H174C174 172.356 192.356 154 215 154V150ZM170 195C170 219.853 190.147 240 215 240V236C192.356 236 174 217.644 174 195H170ZM215 240C215.175 240 215.35 239.999 215.525 239.997L215.479 235.997C215.32 235.999 215.16 236 215 236V240ZM217.069 239.24L217.072 239.237L213.933 236.757L213.931 236.76L217.069 239.24ZM366.5 236H215.5V240H366.5V236ZM364.5 237.997V238H368.5V237.997H364.5Z" fill="url(#paint3_linear_103_1413)" mask="url(#path-7-inside-2_103_1413)"/>
</g>
<g filter="url(#filter6_bd_103_1413)">
<mask id="path-9-inside-3_103_1413" fill="white">
<path fill-rule="evenodd" clip-rule="evenodd" d="M444.563 193.351C444.683 193.352 444.804 193.353 444.924 193.353C462.087 193.353 476 179.44 476 162.277C476 145.115 462.087 131.202 444.924 131.202C444.804 131.202 444.683 131.202 444.563 131.204V131.202H436.535C436.825 129.075 436.975 126.904 436.975 124.697C436.975 98.3549 415.62 77 389.277 77C362.935 77 341.58 98.3549 341.58 124.697C341.58 127.183 341.77 129.624 342.136 132.007C339.868 131.48 337.504 131.202 335.076 131.202C317.913 131.202 304 145.115 304 162.277C304 179.44 317.913 193.353 335.076 193.353C335.197 193.353 335.318 193.352 335.439 193.351L335.437 193.353H444.563V193.351Z"/>
</mask>
<path fill-rule="evenodd" clip-rule="evenodd" d="M444.563 193.351C444.683 193.352 444.804 193.353 444.924 193.353C462.087 193.353 476 179.44 476 162.277C476 145.115 462.087 131.202 444.924 131.202C444.804 131.202 444.683 131.202 444.563 131.204V131.202H436.535C436.825 129.075 436.975 126.904 436.975 124.697C436.975 98.3549 415.62 77 389.277 77C362.935 77 341.58 98.3549 341.58 124.697C341.58 127.183 341.77 129.624 342.136 132.007C339.868 131.48 337.504 131.202 335.076 131.202C317.913 131.202 304 145.115 304 162.277C304 179.44 317.913 193.353 335.076 193.353C335.197 193.353 335.318 193.352 335.439 193.351L335.437 193.353H444.563V193.351Z" fill="url(#paint4_linear_103_1413)" shape-rendering="crispEdges"/>
<path d="M444.563 193.351L444.586 191.351C444.052 191.345 443.537 191.553 443.157 191.929C442.777 192.304 442.563 192.816 442.563 193.351H444.563ZM444.563 131.204H442.563C442.563 131.738 442.777 132.25 443.157 132.626C443.537 133.002 444.051 133.21 444.586 133.204L444.563 131.204ZM444.563 131.202H446.563C446.563 130.097 445.668 129.202 444.563 129.202V131.202ZM436.535 131.202L434.553 130.931C434.475 131.504 434.649 132.082 435.028 132.517C435.408 132.952 435.957 133.202 436.535 133.202V131.202ZM342.136 132.007L341.684 133.955C342.33 134.106 343.009 133.925 343.496 133.474C343.983 133.023 344.214 132.359 344.113 131.703L342.136 132.007ZM335.439 193.351L337.008 194.59C337.486 193.985 337.573 193.16 337.233 192.468C336.893 191.777 336.186 191.342 335.416 191.351L335.439 193.351ZM335.437 193.353L333.867 192.114C333.392 192.715 333.303 193.535 333.637 194.225C333.971 194.915 334.67 195.353 335.437 195.353V193.353ZM444.563 193.353V195.353C445.668 195.353 446.563 194.458 446.563 193.353H444.563ZM444.54 195.351C444.668 195.352 444.796 195.353 444.924 195.353V191.353C444.811 191.353 444.699 191.352 444.586 191.351L444.54 195.351ZM444.924 195.353C463.192 195.353 478 180.544 478 162.277H474C474 178.335 460.982 191.353 444.924 191.353V195.353ZM478 162.277C478 144.01 463.192 129.202 444.924 129.202V133.202C460.982 133.202 474 146.219 474 162.277H478ZM444.924 129.202C444.796 129.202 444.668 129.202 444.54 129.204L444.586 133.204C444.699 133.202 444.811 133.202 444.924 133.202V129.202ZM442.563 131.202V131.204H446.563V131.202H442.563ZM436.535 133.202H444.563V129.202H436.535V133.202ZM438.517 131.472C438.819 129.256 438.975 126.994 438.975 124.697H434.975C434.975 126.813 434.831 128.894 434.553 130.931L438.517 131.472ZM438.975 124.697C438.975 97.2503 416.724 75 389.277 75V79C414.515 79 434.975 99.4595 434.975 124.697H438.975ZM389.277 75C361.83 75 339.58 97.2503 339.58 124.697H343.58C343.58 99.4595 364.039 79 389.277 79V75ZM339.58 124.697C339.58 127.285 339.778 129.828 340.16 132.311L344.113 131.703C343.762 129.421 343.58 127.081 343.58 124.697H339.58ZM342.589 130.059C340.173 129.498 337.658 129.202 335.076 129.202V133.202C337.351 133.202 339.563 133.463 341.684 133.955L342.589 130.059ZM335.076 129.202C316.808 129.202 302 144.01 302 162.277H306C306 146.219 319.018 133.202 335.076 133.202V129.202ZM302 162.277C302 180.544 316.808 195.353 335.076 195.353V191.353C319.018 191.353 306 178.335 306 162.277H302ZM335.076 195.353C335.204 195.353 335.333 195.352 335.461 195.351L335.416 191.351C335.303 191.352 335.189 191.353 335.076 191.353V195.353ZM337.007 194.592L337.008 194.59L333.869 192.112L333.867 192.114L337.007 194.592ZM444.563 191.353H335.437V195.353H444.563V191.353ZM442.563 193.351V193.353H446.563V193.351H442.563Z" fill="url(#paint5_linear_103_1413)" mask="url(#path-9-inside-3_103_1413)"/>
</g>
<defs>
<filter id="filter0_f_103_1413" x="0" y="0" width="353.24" height="353.241" filterUnits="userSpaceOnUse" color-interpolation-filters="sRGB">
<feFlood flood-opacity="0" result="BackgroundImageFix"/>
<feBlend mode="normal" in="SourceGraphic" in2="BackgroundImageFix" result="shape"/>
<feGaussianBlur stdDeviation="50" result="effect1_foregroundBlur_103_1413"/>
</filter>
<filter id="filter1_f_103_1413" x="77" y="35" width="353.24" height="353.241" filterUnits="userSpaceOnUse" color-interpolation-filters="sRGB">
<feFlood flood-opacity="0" result="BackgroundImageFix"/>
<feBlend mode="normal" in="SourceGraphic" in2="BackgroundImageFix" result="shape"/>
<feGaussianBlur stdDeviation="50" result="effect1_foregroundBlur_103_1413"/>
</filter>
<filter id="filter2_f_103_1413" x="181" y="35" width="353.24" height="353.241" filterUnits="userSpaceOnUse" color-interpolation-filters="sRGB">
<feFlood flood-opacity="0" result="BackgroundImageFix"/>
<feBlend mode="normal" in="SourceGraphic" in2="BackgroundImageFix" result="shape"/>
<feGaussianBlur stdDeviation="50" result="effect1_foregroundBlur_103_1413"/>
</filter>
<filter id="filter3_f_103_1413" x="257" y="16" width="353.24" height="353.241" filterUnits="userSpaceOnUse" color-interpolation-filters="sRGB">
<feFlood flood-opacity="0" result="BackgroundImageFix"/>
<feBlend mode="normal" in="SourceGraphic" in2="BackgroundImageFix" result="shape"/>
<feGaussianBlur stdDeviation="50" result="effect1_foregroundBlur_103_1413"/>
</filter>
<filter id="filter4_bd_103_1413" x="61" y="7" width="272" height="216.353" filterUnits="userSpaceOnUse" color-interpolation-filters="sRGB">
<feFlood flood-opacity="0" result="BackgroundImageFix"/>
<feGaussianBlur in="BackgroundImageFix" stdDeviation="7"/>
<feComposite in2="SourceAlpha" operator="in" result="effect1_backgroundBlur_103_1413"/>
<feColorMatrix in="SourceAlpha" type="matrix" values="0 0 0 0 0 0 0 0 0 0 0 0 0 0 0 0 0 0 127 0" result="hardAlpha"/>
<feOffset dx="-21" dy="15"/>
<feGaussianBlur stdDeviation="25"/>
<feComposite in2="hardAlpha" operator="out"/>
<feColorMatrix type="matrix" values="0 0 0 0 0.113438 0 0 0 0 0.148981 0 0 0 0 0.275 0 0 0 0.25 0"/>
<feBlend mode="normal" in2="effect1_backgroundBlur_103_1413" result="effect2_dropShadow_103_1413"/>
<feBlend mode="normal" in="SourceGraphic" in2="effect2_dropShadow_103_1413" result="shape"/>
</filter>
<filter id="filter5_bd_103_1413" x="101" y="42" width="338" height="261" filterUnits="userSpaceOnUse" color-interpolation-filters="sRGB">
<feFlood flood-opacity="0" result="BackgroundImageFix"/>
<feGaussianBlur in="BackgroundImageFix" stdDeviation="7"/>
<feComposite in2="SourceAlpha" operator="in" result="effect1_backgroundBlur_103_1413"/>
<feColorMatrix in="SourceAlpha" type="matrix" values="0 0 0 0 0 0 0 0 0 0 0 0 0 0 0 0 0 0 127 0" result="hardAlpha"/>
<feOffset dx="-21" dy="15"/>
<feGaussianBlur stdDeviation="25"/>
<feComposite in2="hardAlpha" operator="out"/>
<feColorMatrix type="matrix" values="0 0 0 0 0.113725 0 0 0 0 0.14902 0 0 0 0 0.27451 0 0 0 0.25 0"/>
<feBlend mode="normal" in2="effect1_backgroundBlur_103_1413" result="effect2_dropShadow_103_1413"/>
<feBlend mode="normal" in="SourceGraphic" in2="effect2_dropShadow_103_1413" result="shape"/>
</filter>
<filter id="filter6_bd_103_1413" x="233" y="42" width="272" height="216.353" filterUnits="userSpaceOnUse" color-interpolation-filters="sRGB">
<feFlood flood-opacity="0" result="BackgroundImageFix"/>
<feGaussianBlur in="BackgroundImageFix" stdDeviation="7"/>
<feComposite in2="SourceAlpha" operator="in" result="effect1_backgroundBlur_103_1413"/>
<feColorMatrix in="SourceAlpha" type="matrix" values="0 0 0 0 0 0 0 0 0 0 0 0 0 0 0 0 0 0 127 0" result="hardAlpha"/>
<feOffset dx="-21" dy="15"/>
<feGaussianBlur stdDeviation="25"/>
<feComposite in2="hardAlpha" operator="out"/>
<feColorMatrix type="matrix" values="0 0 0 0 0.113438 0 0 0 0 0.148981 0 0 0 0 0.275 0 0 0 0.25 0"/>
<feBlend mode="normal" in2="effect1_backgroundBlur_103_1413" result="effect2_dropShadow_103_1413"/>
<feBlend mode="normal" in="SourceGraphic" in2="effect2_dropShadow_103_1413" result="shape"/>
</filter>
<linearGradient id="paint0_linear_103_1413" x1="226" y1="45.5" x2="226" y2="171.5" gradientUnits="userSpaceOnUse">
<stop stop-color="white"/>
<stop offset="1" stop-color="white" stop-opacity="0"/>
</linearGradient>
<linearGradient id="paint1_linear_103_1413" x1="218" y1="42" x2="218" y2="158.353" gradientUnits="userSpaceOnUse">
<stop stop-color="white"/>
<stop offset="1" stop-color="white" stop-opacity="0"/>
</linearGradient>
<linearGradient id="paint2_linear_103_1413" x1="291" y1="25.5" x2="291" y2="260.5" gradientUnits="userSpaceOnUse">
<stop stop-color="white"/>
<stop offset="1" stop-color="white" stop-opacity="0"/>
</linearGradient>
<linearGradient id="paint3_linear_103_1413" x1="291" y1="77" x2="291" y2="238" gradientUnits="userSpaceOnUse">
<stop stop-color="white"/>
<stop offset="1" stop-color="white" stop-opacity="0"/>
</linearGradient>
<linearGradient id="paint4_linear_103_1413" x1="398" y1="80.5" x2="398" y2="206.5" gradientUnits="userSpaceOnUse">
<stop stop-color="white"/>
<stop offset="1" stop-color="white" stop-opacity="0"/>
</linearGradient>
<linearGradient id="paint5_linear_103_1413" x1="390" y1="77" x2="390" y2="193.353" gradientUnits="userSpaceOnUse">
<stop stop-color="white"/>
<stop offset="1" stop-color="white" stop-opacity="0"/>
</linearGradient>
</defs>
</svg>
